<?xml version="1.0" encoding="UTF-8" standalone="no"?>
<svg width="88px" height="48px" viewBox="0 0 88 48" version="1.1" xmlns="http://www.w3.org/2000/svg" xmlns:xlink="http://www.w3.org/1999/xlink">
    <!-- Generator: Sketch 40 (33762) - http://www.bohemiancoding.com/sketch -->
    <title>Group</title>
    <desc>Created with Sketch.</desc>
    <defs></defs>
    <g id="Page-1" stroke="none" stroke-width="1" fill="none" fill-rule="evenodd">
        <g id="Group" transform="translate(-1.000000, -0.362180)" fill="#FFFFFF">
            <path d="M26.84375,0.33093 C26.399779,0.37074668 25.9818297,0.557724009 25.65625,0.86218 L1.65625,22.86218 C1.23636157,23.2414219 0.996732899,23.7807541 0.996732899,24.346555 C0.996732899,24.9123559 1.23636157,25.4516881 1.65625,25.83093 L25.65625,47.83093 C26.1860155,48.3146751 26.934101,48.4780291 27.6172936,48.2591487 C28.3004863,48.0402682 28.8143698,47.4726062 28.9643963,46.7710701 C29.1144228,46.0695341 28.8776629,45.3413437 28.34375,44.86218 L8.15625,26.36218 L87,26.36218 C88.056625,26.37718 89.03125,25.41888 89.03125,24.36218 C89.03125,23.30548 88.056625,22.34728 87,22.36218 L8.15625,22.36218 L28.34375,3.83093 C28.9987611,3.2606152 29.2108855,2.33277575 28.8687651,1.53449494 C28.5266448,0.736214137 27.7084684,0.249932138 26.84375,0.33093 L26.84375,0.33093 Z" id="Shape"></path>
        </g>
    </g>
</svg>