<svg width="281px" height="51px" viewBox="0 0 281 51" version="1.1" xmlns="http://www.w3.org/2000/svg" xmlns:xlink="http://www.w3.org/1999/xlink">
    <g fill="#9B9B9B">
        <path d="M140.192381,-4.9999963e-07 L135.791905,6.96768743 L140.070568,14.3132107 L144.273065,7.08867 L140.192381,-4.99999999e-07 L140.192381,-4.9999963e-07 L140.192381,-4.9999963e-07 Z M61.3950355,7.07342555 C59.1558976,7.07602035 56.9493043,7.3912886 54.8933113,8.01047286 C52.8373183,8.62998147 50.9415974,9.55535219 49.2747014,10.7463656 C47.3792093,12.1021488 45.8343881,13.8319077 44.7524448,15.7040238 C43.6704687,17.575848 43.038137,19.5887644 42.8795639,21.5835173 C42.7469023,23.2681915 42.9802037,24.9411891 43.5952176,26.4202253 C43.9336026,27.234344 44.408897,27.9767813 44.9656182,28.6118587 C45.522274,29.2466117 46.1601278,29.7723832 46.8689197,30.1684146 C47.6752145,30.6173151 48.5551594,30.8706325 49.4117415,30.9393947 C50.2683562,31.0075082 51.1061827,30.8972292 51.8632359,30.6215316 C52.7141325,30.3036686 53.4295574,29.7798432 53.9644842,29.1554694 C54.5605791,28.4587654 54.9125243,27.6388085 55.0303513,26.8428535 C55.1460218,26.0397627 55.0205488,25.2872706 54.7715632,24.6515445 C54.5229045,24.0151697 54.1498837,23.4994531 53.7361494,23.1095843 C53.2527189,22.6574403 52.7258956,22.3778506 52.2591948,22.217946 C51.792494,22.0590145 51.3852948,22.010362 51.0562876,22.0071185 C50.7272803,22.0071185 50.4856141,22.0525275 50.3254073,22.0979365 C50.1652985,22.140102 50.0924326,22.185511 50.0970072,22.217946 C50.1035422,22.250381 50.1835966,22.2601115 50.3407646,22.2795725 C50.4976059,22.3120075 50.7183927,22.321738 51.0107383,22.386608 C51.3031819,22.4482345 51.661989,22.5585135 52.0461521,22.7492314 C52.4303152,22.9405979 52.8494081,23.2185659 53.2033466,23.6259496 C53.5088603,23.9743015 53.7620283,24.4163907 53.9190002,24.9408647 C54.0758415,25.4653388 54.1268149,26.0683055 53.9951336,26.6638122 C53.8667198,27.2628868 53.5587554,27.8736379 53.0815332,28.3718396 C52.6529971,28.8200914 52.0885646,29.1927696 51.4370851,29.399705 C50.8632421,29.587828 50.2201276,29.639724 49.5642043,29.5521495 C48.9083464,29.464575 48.230694,29.2310429 47.6304494,28.8719874 C47.0934641,28.5508809 46.6032044,28.1097648 46.1839154,27.5872368 C45.7646264,27.0643845 45.4183993,26.4627152 45.163761,25.8036359 C44.6970275,24.5951076 44.562144,23.1809413 44.7069608,21.7379079 C44.8768722,20.0311779 45.4832924,18.3082304 46.4732222,16.7046437 C47.4631847,15.101057 48.8456752,13.6265941 50.508258,12.4725566 C51.9825987,11.4476104 53.6699167,10.6610615 55.5178009,10.1450206 C57.3656525,9.62897965 59.3700186,9.37566226 61.3952316,9.38928496 C63.2445862,9.38928496 65.1200157,9.655252 67.0138414,10.0846915 C68.9076344,10.5147797 70.8216208,11.1200169 72.708552,11.8679681 C73.1801867,12.0560911 73.6391108,12.2536203 74.1094059,12.4576365 C73.1003284,13.2023442 72.2348913,14.0654073 71.5513248,15.0271052 C70.9496098,15.8769024 70.5057816,16.8116792 70.2570902,17.7779181 C69.9862122,18.8278392 69.9884995,19.909871 70.2407526,20.8913543 C70.5230669,21.9834409 71.1352053,22.9149743 71.9308806,23.5516734 C72.3912098,23.9185133 72.9032312,24.1741012 73.4230947,24.3223292 C73.9429581,24.4715302 74.4791919,24.5104522 74.9761827,24.4585562 C75.6873598,24.3774687 76.2914274,24.099825 76.7729301,23.7482296 C77.2544329,23.3963097 77.6069009,22.9743303 77.8387973,22.5390525 C78.1051007,22.0330665 78.2142688,21.5394057 78.2346908,21.1180749 C78.254296,20.6970686 78.1925397,20.3441757 78.1128121,20.0752895 C78.0327577,19.806079 77.9350586,19.6182803 77.854024,19.5008656 C77.7729893,19.3840995 77.704698,19.335447 77.6713692,19.348421 C77.6380405,19.348421 77.6301984,19.4424825 77.6419615,19.5754661 C77.6517641,19.7084496 77.6811718,19.8868421 77.6877069,20.1346456 C77.6942419,20.3811516 77.6746368,20.685392 77.5962161,21.0266082 C77.5181222,21.3675001 77.3776186,21.7466654 77.1241892,22.0995582 C76.9075522,22.4044473 76.6099459,22.6940919 76.2258155,22.9159473 C75.8417178,23.1365053 75.3722396,23.3015995 74.8858682,23.3087352 C74.5420918,23.3087352 74.1898851,23.2471087 73.8352604,23.1108817 C73.4806031,22.9746547 73.1284945,22.7771255 72.8303,22.5062932 C72.3052412,22.0330665 71.9109814,21.3298755 71.7492062,20.5413805 C71.6018407,19.8258643 71.66229,19.017584 71.9014729,18.229089 C72.123338,17.498977 72.5241654,16.7772981 73.0434734,16.0977848 C73.6337848,15.3216151 74.3801532,14.6216676 75.2665351,14.027134 C75.5792374,13.8163065 75.9133093,13.6214045 76.2562689,13.4378224 C78.6648607,14.5915031 81.0679304,15.9119322 83.5193268,17.2767972 C86.7885197,19.1045098 90.1588099,20.9993628 93.6601933,22.7784229 C96.2108572,24.0745257 98.7728234,25.2742966 101.364821,26.3303804 C103.123045,27.0468696 104.895743,27.6851906 106.678898,28.249884 C106.672363,28.4996335 106.656025,28.7578162 106.633152,29.0056196 C106.410961,31.3033154 105.498798,33.4894348 104.075071,35.1423227 C103.326906,36.013527 102.428957,36.7465581 101.456116,37.3034672 C100.483275,37.8607005 99.4396929,38.2505693 98.3803608,38.4221505 C97.2445392,38.6102735 96.0872466,38.5648645 95.0000752,38.315115 C93.9128711,38.0686089 92.8970298,37.6154919 92.0461332,36.9998755 C90.9234765,36.1909465 90.0474199,35.1053468 89.5641854,33.9318483 C89.3027833,33.2993657 89.1420537,32.6380159 89.0921912,31.9818558 C89.0415446,31.3260199 89.0987263,30.6779685 89.2598154,30.0775966 C89.4891957,29.2164472 89.9095957,28.4415749 90.4779166,27.8707188 C91.0912966,27.2531563 91.8826916,26.8311769 92.6553309,26.7221952 C93.0818738,26.6605687 93.5177618,26.6897602 93.9191121,26.7838217 C94.320495,26.8778833 94.6798903,27.0433018 94.9849792,27.2674277 C95.3375453,27.5236642 95.6269175,27.8580691 95.8224463,28.2197194 C96.0178444,28.5813698 96.1302473,28.9705898 96.1423371,29.3380784 C96.1652098,29.8093591 96.0247062,30.2696118 95.8224463,30.6533179 C95.6201864,31.0366997 95.3573466,31.34094 95.0611126,31.5602007 C94.7195907,31.8164372 94.3324542,31.9630435 93.9952455,32.0438066 C93.6580694,32.1248941 93.3569015,32.1378681 93.1120984,32.1346246 C92.8673607,32.1346246 92.6808176,32.0989461 92.5487442,32.0892156 C92.4167361,32.0892156 92.3504053,32.0859721 92.3357014,32.1216506 C92.3193638,32.1540856 92.3553066,32.2221992 92.4726108,32.3032867 C92.5892615,32.3843742 92.7826991,32.4816792 93.0511917,32.5595232 C93.3197824,32.6373672 93.6661075,32.6892632 94.0866055,32.6665587 C94.5071362,32.6341237 95.0032774,32.5335752 95.5026861,32.2585264 C95.9320718,32.0185073 96.3441396,31.6597762 96.6751073,31.1703319 C97.0061078,30.6808877 97.2622492,30.0633252 97.2994009,29.3565664 C97.3222736,28.8100366 97.2170593,28.2275038 96.9795101,27.6787036 C96.7422877,27.1302276 96.3648884,26.607051 95.8527689,26.1824767 C95.4130579,25.8211508 94.8897962,25.5441558 94.3148749,25.366412 C93.7399209,25.1880195 93.114353,25.1101754 92.4724801,25.1685585 C91.3269506,25.2788375 90.1863878,25.7734713 89.2749113,26.6193763 C88.4408425,27.3948973 87.8095891,28.4211408 87.4629372,29.5667452 C87.2211402,30.3646464 87.0983792,31.2105513 87.1279504,32.0759173 C87.1573581,32.9412832 87.3246555,33.8274076 87.6456573,34.675583 C88.2394975,36.2389503 89.3161802,37.6673879 90.7366393,38.741311 C91.8190075,39.5573757 93.0854681,40.1609912 94.451915,40.5096675 C95.8183945,40.8586681 97.2840436,40.9520809 98.745801,40.7367125 C100.099537,40.5356155 101.431316,40.0808767 102.659023,39.4068773 C103.886731,38.7328779 105.01406,37.8467535 105.963179,36.7618026 C107.754372,34.708991 108.88291,32.0528884 109.160748,29.2498552 C109.17055,29.1655242 109.17055,29.0779497 109.177085,28.9936187 L109.222831,28.9936187 C111.365054,29.575827 113.576254,30.0055909 115.770235,30.1878756 C117.964248,30.3695116 120.1398,30.2981546 122.271959,29.88623 C124.51871,29.4428435 126.664168,28.5998577 128.514863,27.3468934 C130.450513,26.0365192 132.024415,24.2594052 133.021925,22.2380557 C133.60874,21.0463936 133.988133,19.7817527 134.13344,18.5047865 C134.278845,17.2278204 134.187681,15.9446915 133.889682,14.7261084 C133.56587,13.4121987 132.977585,12.1975078 132.199554,11.1592632 C131.421491,10.1206943 130.455773,9.26635629 129.367426,8.63517107 C128.16478,7.94235935 126.850058,7.55865323 125.545563,7.47107872 C124.241036,7.3835042 122.954186,7.58135774 121.799834,8.04550267 C120.541444,8.55862446 119.461658,9.36787785 118.663139,10.3428741 C117.800578,11.3976605 117.273199,12.6376508 117.079598,13.864667 C116.919816,14.8756337 116.993009,15.8853355 117.262253,16.7967591 C117.557637,17.7947843 118.095831,18.6569067 118.769661,19.3208513 C119.526714,20.0662077 120.447862,20.5293796 121.358195,20.7265844 C121.891684,20.8401069 122.419259,20.8563244 122.911283,20.8011849 C123.40334,20.7460454 123.857298,20.6325229 124.266457,20.4534817 C124.789752,20.2231931 125.230835,19.9001405 125.575951,19.5618434 C125.921035,19.2238706 126.182045,18.8567063 126.367706,18.5038135 C126.584669,18.0902672 126.701418,17.6978036 126.763599,17.3552899 C126.825682,17.0124519 126.824048,16.7257265 126.809344,16.4934918 C126.796274,16.2599598 126.768827,16.0925952 126.733211,15.9797213 C126.697595,15.8661988 126.65381,15.8110593 126.62669,15.8143028 C126.600549,15.8162489 126.584539,15.8824163 126.565914,15.9959388 C126.546309,16.1062179 126.52703,16.2683929 126.48978,16.4795448 C126.452531,16.6903723 126.394695,16.9423923 126.291768,17.2352804 C126.188841,17.5271955 126.04507,17.8599786 125.819774,18.1872478 C125.627643,18.4661889 125.371339,18.7512926 125.05844,19.0036369 C124.745411,19.25663 124.377847,19.4739445 123.946893,19.6231455 C123.610207,19.7399115 123.22892,19.8209991 122.835346,19.8339731 C122.441772,19.8339731 122.025914,19.7982946 121.617245,19.6815285 C120.917014,19.483675 120.223253,19.0636417 119.668231,18.4571071 C119.171763,17.9157668 118.782012,17.2190629 118.587137,16.4318653 C118.408403,15.7111595 118.398601,14.913907 118.557729,14.1192494 C118.74986,13.1556378 119.207215,12.1855068 119.91287,11.3837135 C120.565787,10.6403031 121.44534,10.0298763 122.440465,9.66044161 C123.342303,9.3201984 124.36445,9.19532362 125.39444,9.29781824 C126.424397,9.40161026 127.463209,9.73796127 128.378835,10.295519 C129.218394,10.8018295 129.958717,11.5076152 130.556217,12.3509253 C131.153717,13.1942355 131.599113,14.1695237 131.835258,15.2074438 C132.058103,16.1762775 132.097313,17.1999263 131.957136,18.2303864 C131.816959,19.2611709 131.499225,20.2974693 131.013083,21.2533289 C130.184438,22.8870802 128.841027,24.324924 127.206447,25.4098749 C125.638034,26.4510386 123.783353,27.1668792 121.81627,27.5411791 C119.947114,27.9041268 117.98797,27.9456436 115.984487,27.7520067 C113.981035,27.5573966 111.936413,27.1208215 109.893883,26.5729942 C109.651105,26.5081242 109.405681,26.4302802 109.163002,26.3621667 C109.003547,24.6992239 108.56779,23.0492552 107.883962,21.4952941 C107.849326,21.41745 107.828414,21.3298755 107.792471,21.2520315 C106.779538,19.0623443 105.337415,17.1678156 103.650881,15.5840143 C101.964315,14.0005373 100.028403,12.732361 98.0170445,11.8053685 C95.8232305,10.7937207 93.5532472,10.1424258 91.3173768,9.76520667 C89.0815064,9.38766321 86.8753379,9.28776339 84.7699725,9.35684995 C83.5131838,9.39252846 82.2646293,9.48983348 81.0546969,9.68963311 C79.8447318,9.89073015 78.6817538,10.1881591 77.5678213,10.5961915 C77.2956364,10.69674 77.0242683,10.8135061 76.7608076,10.9289747 C75.7183033,10.4505583 74.6678262,9.99679261 73.6089189,9.58357064 C71.6171001,8.80415745 69.5953507,8.16097129 67.5487355,7.72472046 C65.5021203,7.28846964 63.4344949,7.05655935 61.3972248,7.0594785 L61.3950355,7.07342555 L61.3950355,7.07342555 Z M155.723425,7.07342555 C154.417231,7.13180856 153.089505,7.48145792 151.871109,8.14669989 C150.768417,8.75291015 149.780023,9.60497775 148.978074,10.625383 C148.17619,11.6457883 147.566012,12.8410183 147.211813,14.1471435 C146.885713,15.358591 146.776349,16.6306919 146.891922,17.9105772 C147.007592,19.1904626 147.337808,20.4693748 147.89685,21.6740109 C148.847242,23.7177407 150.377327,25.5191809 152.282099,26.8736667 C154.103255,28.1684721 156.228225,29.0691922 158.464096,29.5638261 C160.586125,30.0260249 162.783406,30.1492779 164.981046,30.0172675 C167.178654,29.8842839 169.373288,29.5073892 171.528451,28.974482 L171.574196,28.974482 C171.580731,29.058813 171.583999,29.1463876 171.590534,29.2307186 C171.80325,32.0392657 172.877482,34.7096397 174.620609,36.802995 C175.544339,37.9096774 176.652096,38.8369942 177.863858,39.5385634 C179.07562,40.2404569 180.397923,40.7263333 181.746627,40.959541 C183.203029,41.2092905 184.666325,41.141177 186.040516,40.823314 C187.414674,40.5054509 188.700479,39.9368653 189.801472,39.1457755 C191.24647,38.1042874 192.338641,36.6897968 192.968587,35.1403766 C193.309325,34.2999856 193.512794,33.4352684 193.562428,32.5708755 C193.612094,31.7064826 193.511454,30.8498741 193.288282,30.0467833 C192.968391,28.8933945 192.353083,27.8483386 191.537247,27.0540053 C190.645605,26.187342 189.512786,25.6631923 188.370099,25.527614 C187.729795,25.4530135 187.106645,25.527614 186.527704,25.6800585 C185.948797,25.845477 185.422529,26.1146876 184.974584,26.4659587 C184.45276,26.878532 184.067388,27.4039791 183.817389,27.9472654 C183.567423,28.4902274 183.457177,29.0630296 183.467176,29.6098838 C183.486781,30.3172913 183.710933,30.9264207 184.030563,31.4236493 C184.350127,31.9205536 184.764057,32.3068545 185.187757,32.5569284 C185.680631,32.8456 186.168799,32.9607442 186.588611,32.9954497 C187.008423,33.0311282 187.3538,32.9630147 187.624025,32.9046317 C187.894249,32.8332747 188.084223,32.7392131 188.202606,32.6646126 C188.32089,32.5867686 188.368923,32.5154116 188.354873,32.4829766 C188.341802,32.4472981 188.274165,32.4440546 188.14183,32.4505416 C188.009495,32.4505416 187.808085,32.4829766 187.563249,32.4829766 C187.318511,32.4820035 187.01535,32.4505416 186.680102,32.3759411 C186.344854,32.2883666 185.980198,32.1261915 185.644688,31.8621706 C185.353551,31.6351255 185.091757,31.3282904 184.898581,30.9400434 C184.70547,30.5521207 184.574769,30.0805157 184.609405,29.6102081 C184.62901,29.2427195 184.75579,28.8638787 184.959618,28.5067692 C185.163512,28.1496598 185.453963,27.8159036 185.812312,27.5697219 C186.1224,27.3524074 186.489964,27.2006116 186.893406,27.1162806 C187.296815,27.0319495 187.73218,27.015732 188.157187,27.0838455 C188.927114,27.2103421 189.705243,27.6465929 190.304148,28.2781025 C190.859072,28.8616082 191.267382,29.6488058 191.476602,30.5151448 C191.622007,31.1187603 191.664158,31.7648656 191.598481,32.419404 C191.533457,33.0739424 191.356684,33.7278321 191.080774,34.3541521 C190.570484,35.5162983 189.663811,36.5785448 188.522693,37.3618502 C187.657746,37.9580056 186.646185,38.3936077 185.553524,38.6164362 C184.460896,38.8402377 183.289226,38.8596987 182.158009,38.6488712 C181.102957,38.4542612 180.072379,38.0491479 179.112707,37.4698587 C178.153034,36.8908939 177.267208,36.1361313 176.539431,35.2480608 C175.154425,33.5633866 174.302483,31.3383452 174.133617,29.0361085 C174.114012,28.786359 174.104209,28.5456913 174.104209,28.295293 C175.898179,27.771792 177.676138,27.1720688 179.448739,26.4967719 C182.064557,25.5000442 184.664691,24.3486015 187.24473,23.111206 C190.786435,21.4122604 194.19672,19.6040089 197.50741,17.8512212 C199.99109,16.5421443 202.425855,15.2771791 204.861828,14.1782811 C205.199723,14.3696477 205.52909,14.5817726 205.836335,14.7981141 C206.7087,15.4127574 207.44154,16.1247058 208.013717,16.9141739 C208.517145,17.6053638 208.905164,18.325421 209.110038,19.0603982 C209.330922,19.8544071 209.365558,20.6607414 209.201528,21.3730141 C209.021488,22.1572925 208.610661,22.8614565 208.074754,23.3226823 C207.770221,23.5854058 207.42749,23.7852055 207.069794,23.9123507 C206.712131,24.0388472 206.347409,24.0972302 206.003959,24.0777692 C205.517882,24.0453342 205.058076,23.8864027 204.679239,23.6544924 C204.300369,23.4242039 203.990346,23.1342349 203.780865,22.8231832 C203.535801,22.464452 203.409413,22.0778268 203.339292,21.7349888 C203.269367,21.3921507 203.267406,21.0898565 203.278516,20.8433504 C203.291586,20.5968444 203.311518,20.4015857 203.324261,20.2689265 C203.337331,20.135943 203.340599,20.058099 203.307923,20.0418815 C203.274921,20.0418815 203.208917,20.07756 203.125269,20.194326 C203.04162,20.311092 202.937386,20.5024585 202.851123,20.7687499 C202.765187,21.034717 202.703431,21.3749602 202.714214,21.7966153 C202.724016,22.217946 202.809952,22.7203642 203.064395,23.232513 C203.28626,23.6729803 203.626573,24.1089068 204.099808,24.4718545 C204.573044,24.8344779 205.172211,25.1306095 205.881329,25.2275902 C206.377013,25.2892167 206.911254,25.2600252 207.434417,25.1205546 C207.957581,24.9843276 208.473131,24.7365242 208.941858,24.3800635 C209.752074,23.7615279 210.400416,22.8504286 210.708119,21.7651533 C210.984225,20.7898327 211.000236,19.7078009 210.753865,18.6517171 C210.527752,17.6799643 210.102385,16.7341596 209.520537,15.8707397 C208.861411,14.8967165 208.026264,14.0066999 207.038589,13.2406175 C207.507512,13.049251 207.984799,12.8711828 208.45467,12.6966825 C210.358429,11.9918698 212.276565,11.4206894 214.179834,11.0340641 C216.083102,10.6471145 217.964479,10.4456931 219.81367,10.4745602 C221.838654,10.5069953 223.825245,10.8083165 225.660647,11.3665229 C227.49605,11.9247294 229.174317,12.7414428 230.62451,13.799797 C232.259907,14.9917511 233.615669,16.4967353 234.568186,18.1227022 C235.52067,19.748669 236.082456,21.4910775 236.212634,23.201051 C236.324057,24.6470036 236.159047,26.0540341 235.664474,27.2518589 C235.394576,27.9050999 235.02992,28.5074179 234.598639,29.0202154 C234.167359,29.5330128 233.665957,29.9514244 233.121652,30.259557 C232.513239,30.6062872 231.830391,30.8223043 231.172671,30.8946344 C230.514917,30.9659914 229.884383,30.8978779 229.315016,30.6967808 C228.668504,30.4762228 228.10381,30.0967332 227.685795,29.6387509 C227.22027,29.1298457 226.91724,28.5174728 226.802648,27.9154791 C226.685017,27.3170532 226.755269,26.7134378 226.924527,26.1925316 C227.093458,25.6716254 227.357147,25.2340772 227.670634,24.8928609 C228.033917,24.493586 228.454579,24.2136719 228.843055,24.0310628 C229.231531,23.8494268 229.60001,23.7553653 229.893695,23.698604 C230.187446,23.6434645 230.40637,23.6240035 230.563669,23.607786 C230.720837,23.575351 230.816902,23.575351 230.822457,23.5461595 C230.828992,23.5137245 230.753185,23.471559 230.594057,23.42615 C230.434928,23.3774974 230.176957,23.3223579 229.84795,23.3191144 C229.518943,23.3191144 229.115338,23.3677669 228.645043,23.516968 C228.17478,23.666169 227.64665,23.9220812 227.152861,24.3635216 C226.730207,24.7436599 226.335098,25.2444564 226.071768,25.8746685 C225.808405,26.5048807 225.670352,27.2606163 225.767234,28.0663019 C225.866567,28.8648517 226.192405,29.6838356 226.772195,30.3941622 C227.292483,31.0302127 227.999641,31.5699312 228.842989,31.9056335 C229.59341,32.200792 230.436529,32.3324782 231.294484,32.2835013 C232.152438,32.2348488 233.036043,32.0045603 233.852532,31.5731747 C234.57031,31.1930364 235.230285,30.6834825 235.801514,30.0617034 C236.372808,29.4396 236.845195,28.7065689 237.202368,27.9002346 C237.851462,26.4357941 238.133417,24.76604 238.039835,23.078771 C237.927432,21.0807747 237.342283,19.0496946 236.303994,17.1538685 C235.265738,15.2577181 233.767119,13.5043141 231.903551,12.1053923 C230.26469,10.8767543 228.386941,9.89981195 226.345848,9.23359693 C224.304755,8.56770626 222.097867,8.19892025 219.85935,8.14540249 C217.822668,8.09674998 215.764028,8.28487301 213.707807,8.67441743 C211.65165,9.06396185 209.596115,9.66368511 207.586749,10.3976893 C206.524901,10.7839902 205.482005,11.2157001 204.434861,11.6671954 C204.170191,11.5439424 203.901894,11.4271764 203.627847,11.3194921 C202.523684,10.8858361 201.34597,10.5644052 200.140971,10.3370358 C198.936006,10.1099908 197.696567,9.97733161 196.440922,9.913759 C194.337746,9.79699298 192.122331,9.85861949 189.878291,10.186213 C187.634252,10.5121849 185.364857,11.0989341 183.148167,12.0603077 C181.115864,12.9412424 179.161033,14.1584958 177.438197,15.7030507 C175.715394,17.2476057 174.222984,19.1294847 173.159567,21.2954944 C173.121991,21.3733384 173.089315,21.4446955 173.053046,21.5225395 C172.33321,23.0609318 171.850106,24.6998726 171.652192,26.3592475 C171.412682,26.420874 171.176375,26.4954745 170.936538,26.5571011 C168.88182,27.0582219 166.822886,27.4377115 164.815481,27.5849664 C162.808076,27.7309239 160.843933,27.6595669 158.983698,27.2525076 C157.025828,26.8334473 155.183042,26.077063 153.639201,25.0005451 C152.030238,23.8782939 150.729697,22.4054203 149.939152,20.7531811 C149.475294,19.786618 149.172361,18.7486978 149.056005,17.7153185 C148.939681,16.6816149 149.008625,15.6556956 149.254017,14.692376 C149.514112,13.6600022 149.977055,12.6801406 150.593964,11.8507775 C151.21084,11.0214144 151.98116,10.3428741 152.832252,9.85570034 C153.760557,9.31922535 154.799793,9.01271454 155.831874,8.93357313 C156.863955,8.85572911 157.892148,8.99519964 158.785849,9.35684995 C159.772152,9.74898917 160.632263,10.3824448 161.267764,11.1404509 C161.954631,11.9581374 162.392251,12.9386476 162.561999,13.9065082 C162.701522,14.7043769 162.666233,15.5022781 162.470508,16.2187673 C162.257465,17.001424 161.852651,17.699101 161.343767,18.229089 C160.774825,18.8229739 160.068909,19.2125184 159.364299,19.392857 C158.953048,19.4998925 158.539347,19.535571 158.146198,19.5128665 C157.753049,19.4804315 157.383753,19.412318 157.049877,19.2858215 C156.622485,19.1268899 156.245314,18.895304 155.93833,18.635824 C155.63151,18.3763439 155.393013,18.0886454 155.20745,17.8045148 C154.989506,17.4720559 154.846748,17.1473815 154.750682,16.8525473 C154.654617,16.5573888 154.600376,16.2940165 154.568028,16.0815673 C154.535352,15.8707397 154.522936,15.6952663 154.507252,15.5827169 C154.490914,15.4691943 154.473596,15.4172983 154.446476,15.4172983 C154.420335,15.4172983 154.378184,15.4562203 154.339954,15.5697429 C154.301724,15.6800219 154.268395,15.8519274 154.248464,16.0835134 C154.228858,16.3138019 154.225591,16.6160961 154.277871,16.9602316 C154.332112,17.304367 154.435693,17.705588 154.643311,18.1239996 C154.820738,18.4807846 155.082663,18.8511924 155.419839,19.1969496 C155.757048,19.5430311 156.181107,19.8605698 156.69888,20.1038323 C157.103792,20.2919553 157.548143,20.4317502 158.038827,20.4969446 C158.529446,20.5618146 159.05591,20.5553276 159.591915,20.4515356 C160.506561,20.2763865 161.43676,19.819053 162.210903,19.0912114 C162.899959,18.4428357 163.460895,17.5881733 163.779218,16.5972838 C164.069701,15.6923472 164.17449,14.6946464 164.038006,13.6804362 C163.872996,12.4492034 163.368457,11.2024018 162.530565,10.1284787 C161.75492,9.13531886 160.700946,8.31211842 159.45481,7.77045382 C158.311567,7.27938784 157.030534,7.03255744 155.724307,7.09029175 L155.723425,7.07342555 L155.723425,7.07342555 Z M8.4219269,10.8673482 C7.40461519,10.8683212 6.40207271,11.0100622 5.46795224,11.2903006 C4.53386444,11.5724852 3.66721838,11.9886263 2.90990376,12.5299666 C2.04871448,13.1459073 1.3610962,13.9314832 0.869562189,14.7818966 C0.377962827,15.6323424 0.0889174324,16.5509018 0.016868473,17.4571358 C-0.0435807673,18.222602 0.0573858016,18.9767159 0.336759318,19.6487692 C0.490659816,20.0188526 0.708113705,20.3577984 0.961052931,20.64647 C1.21395948,20.9351415 1.50692591,21.1767823 1.82894065,21.3567966 C2.19526304,21.5611371 2.59700543,21.6714161 2.98616783,21.7044998 C3.37533024,21.7369349 3.75377516,21.7044998 4.097715,21.5682728 C4.48429606,21.4255588 4.81395681,21.1868372 5.05699543,20.9033552 C5.32787338,20.5854921 5.47546755,20.2069756 5.52898963,19.8453253 C5.58159681,19.4804315 5.53552468,19.1366204 5.42246827,18.8476245 C5.30941185,18.558953 5.13852021,18.3296375 4.95047406,18.1525424 C4.73089628,17.9482018 4.49253022,17.8171644 4.28050043,17.7441856 C4.06843796,17.6728286 3.88182952,17.6566111 3.73234018,17.6533676 C3.58268747,17.6514215 3.46995781,17.6533676 3.39735337,17.6858026 C3.32448753,17.7182376 3.28887149,17.7312116 3.290832,17.7474291 C3.29181226,17.7474291 3.32612129,17.7798642 3.39735337,17.7798642 C3.46858544,17.7798642 3.56922526,17.8122992 3.70188684,17.8252732 C3.83454841,17.8577082 3.99923175,17.9031172 4.17391372,17.9906917 C4.34839963,18.0782662 4.54601963,18.1982757 4.70684729,18.383804 C4.84571716,18.5427355 4.9551793,18.7499952 5.02673813,18.9883925 C5.09797021,19.225168 5.13195249,19.5037847 5.0724835,19.7742927 C5.01399478,20.0467467 4.86303506,20.3188764 4.64613665,20.5449484 C4.45139207,20.7492889 4.19600219,20.9195727 3.90002964,21.0136342 C3.63928103,21.0979652 3.34533435,21.1141827 3.04733593,21.0752607 C2.74933751,21.0363387 2.45215598,20.9357902 2.17941554,20.7736152 C1.93533131,20.6276577 1.6999387,20.4369398 1.5094419,20.1995156 C1.31894511,19.96274 1.16834481,19.6828259 1.05267437,19.3831265 C0.840611904,18.8340018 0.773627611,18.1947079 0.839631646,17.5391964 C0.916745272,16.7639998 1.19687032,15.9703152 1.64661267,15.241825 C2.09638769,14.5133347 2.71842671,13.8465034 3.47381349,13.3223538 C4.14365642,12.8565871 4.91825625,12.498829 5.75778184,12.2643239 C6.5973401,12.0307918 7.50231424,11.9257024 8.4224497,11.9318651 C9.26266147,11.9318651 10.1201258,12.0389006 10.9804982,12.2335106 C11.8409343,12.4281206 12.7117301,12.7096565 13.5689984,13.0495754 C15.2082184,13.7018433 16.8265262,14.5885839 18.4871812,15.513306 C19.9724681,16.3436421 21.4948087,17.1989532 23.0856039,18.0072335 C24.2444322,18.5959289 25.4100896,19.1444048 26.5877062,19.6244429 C27.7653227,20.1041567 28.9477425,20.5102429 30.1507151,20.8336199 C31.1239805,21.099587 32.1230921,21.2948457 33.119887,21.377555 C34.1166787,21.4586425 35.1203321,21.429451 36.0890557,21.241328 C37.1097983,21.0402309 38.0803517,20.6467943 38.9211843,20.07756 C39.8006064,19.4820533 40.5083526,18.6835034 40.9615585,17.7649441 C41.2281887,17.2236038 41.398002,16.6524234 41.4640388,16.0721611 C41.5300428,15.4918988 41.4934465,14.9028791 41.3575174,14.3492136 C41.2104787,13.7521176 40.9496647,13.2036416 40.5961837,12.7317123 C40.2427027,12.2601073 39.7963913,11.8699142 39.3019165,11.5831887 C38.7555207,11.2685692 38.1587723,11.0937445 37.5661084,11.0541738 C36.9734117,11.0152518 36.3851916,11.1158003 35.8607209,11.3266278 C35.2890345,11.5601599 34.8074338,11.9263511 34.4446403,12.3694133 C34.0527658,12.8484783 33.8169811,13.3989004 33.7290193,13.9564581 C33.6564802,14.4157054 33.6829472,14.8723902 33.8051527,15.2865853 C33.9391213,15.7397023 34.1841858,16.1334633 34.4903203,16.4351088 C34.8342928,16.7737303 35.2491707,16.9955857 35.6627742,17.0851063 C35.9052246,17.1370023 36.1548963,17.1402458 36.3784278,17.1175413 C36.6019266,17.0851063 36.8016052,17.0332103 36.9874948,16.9521228 C37.2253707,16.8483308 37.4245264,16.7121038 37.581335,16.5590105 C37.7381763,16.406566 37.8623423,16.2346605 37.9467752,16.0754046 C38.0454545,15.8872816 38.1013292,15.7020777 38.1294299,15.5463897 C38.1588377,15.3907016 38.1523026,15.2577181 38.1457676,15.1532774 C38.1392325,15.0494854 38.1326975,14.9781284 38.1163598,14.9262324 C38.1000222,14.8743363 38.0830311,14.8483883 38.0706145,14.8516318 C38.0575444,14.8526049 38.0477418,14.8840668 38.0412067,14.9262324 C38.0314041,14.9781284 38.011799,15.0559724 37.9954613,15.1532774 C37.9791237,15.2505824 37.9660536,15.3673484 37.919328,15.5009807 C37.8726024,15.6339642 37.7932015,15.7766782 37.6909279,15.9242575 C37.6036849,16.050754 37.4981438,16.186981 37.3559411,16.3021253 C37.2138037,16.4156478 37.0340897,16.5226833 36.8382342,16.5907968 C36.6853139,16.6459364 36.514749,16.6751279 36.3357539,16.6816149 C36.1570202,16.6816149 35.9732872,16.6491799 35.7875937,16.6070143 C35.4693366,16.5194398 35.1566343,16.3378038 34.9044466,16.062755 C34.6789873,15.8162489 34.505743,15.4983859 34.4171931,15.1409521 C34.3358317,14.8133585 34.3302769,14.4439238 34.4008554,14.0829222 C34.4880984,13.6450821 34.689378,13.2078582 35.0098897,12.8436131 C35.3065811,12.5059647 35.7149893,12.2254019 36.1671169,12.0573885 C36.576832,11.9017005 37.0391217,11.8433175 37.5070642,11.89197 C37.9750066,11.937379 38.4462166,12.093067 38.8622054,12.3454114 C39.2436238,12.5756999 39.5804731,12.8994013 39.8519392,13.2824587 C40.1234707,13.6655161 40.3232799,14.1108163 40.4305528,14.5824213 C40.5318461,15.02224 40.5550456,15.4896284 40.4913288,15.9576655 C40.427612,16.426027 40.2858014,16.8989294 40.0649819,17.3332341 C39.6884975,18.0753471 39.0717846,18.7295611 38.3291412,19.2225732 C37.616559,19.6954756 36.7713806,20.0045812 35.8776794,20.1745406 C35.0284819,20.3399592 34.1385057,20.3691507 33.2282709,20.2815761 C32.3180328,20.1940016 31.3850232,20.0026351 30.4570457,19.7525612 C29.3083468,19.4411851 28.1693851,19.0273145 27.0310769,18.5583043 C25.892736,18.0892941 24.7579894,17.5661175 23.620302,16.9865039 C22.0586204,16.1905489 20.5452655,15.3300482 19.0523653,14.5078208 C17.3825285,13.5837799 15.7085747,12.7021964 13.9819157,12.0288457 C13.0769742,11.6746555 12.1557605,11.3807943 11.2259221,11.1826164 C10.2960821,10.9847629 9.34983907,10.8777274 8.42424684,10.8809709 L8.4219269,10.8673482 L8.4219269,10.8673482 Z M84.8134633,11.6380039 C86.7930942,11.6380039 88.8535311,11.7612569 90.9040674,12.1368543 C92.9546036,12.5124517 95.0037348,13.120608 96.9489914,14.0563255 C98.7208044,14.9096905 100.409625,16.0403748 101.882398,17.4269713 C103.355203,18.8135678 104.605685,20.4612661 105.445407,22.3240085 C105.474814,22.3888785 105.507816,22.4537485 105.536897,22.521862 C105.962525,23.4965339 106.259282,24.5201827 106.450498,25.5448045 C105.075359,25.0777404 103.708847,24.5522933 102.339329,23.9879242 C99.8338219,22.955518 97.3367161,21.7726134 94.8326472,20.4966202 C91.3952093,18.7448056 88.0538693,16.8807658 84.767914,15.0702438 C83.0002475,14.0923284 81.2360446,13.1280681 79.4538376,12.2289697 C80.0764975,12.0765252 80.7233697,11.9565157 81.3876252,11.866022 C82.4856448,11.7200645 83.631501,11.651951 84.813594,11.638977 L84.8134633,11.6380039 L84.8134633,11.6380039 Z M194.840423,12.1520987 C195.343654,12.1520987 195.853127,12.1530718 196.347831,12.1520987 C197.529303,12.1910208 198.664278,12.2818388 199.758573,12.4537443 C200.428677,12.5607798 201.08166,12.6905198 201.707587,12.8617767 C199.898815,13.7226017 198.113275,14.6421017 196.317377,15.5823925 C192.990316,17.317341 189.592742,19.109375 186.115604,20.7820483 C183.582617,22.0003071 181.061557,23.1322888 178.532786,24.1072851 C177.14742,24.6411653 175.764668,25.1221764 174.375937,25.5581029 C174.59094,24.5376976 174.932593,23.5305907 175.380897,22.5653249 C175.410305,22.5004549 175.440693,22.4355849 175.472388,22.3674714 C176.355078,20.52419 177.637418,18.9134676 179.141984,17.5609279 C180.646516,16.2080638 182.375626,15.1085171 184.166753,14.2960202 C186.133183,13.405063 188.183425,12.8413426 190.24213,12.512776 C191.786135,12.26627 193.330825,12.1530718 194.840553,12.1349082 L194.840423,12.1520987 L194.840423,12.1520987 Z M243.595774,12.6658692 C243.002325,12.6983042 242.398258,12.8475053 241.844739,13.1494752 C241.343729,13.4251727 240.884347,13.8043379 240.520018,14.2681261 C240.155689,14.7316223 239.87393,15.2768548 239.713005,15.870091 C239.564986,16.4205131 239.523488,16.9965588 239.576095,17.5781184 C239.628702,18.1596781 239.779009,18.7538874 240.032895,19.3010659 C240.464666,20.2296801 241.162218,21.0437988 242.02759,21.6590908 C242.854993,22.2474618 243.828683,22.6587377 244.844492,22.883188 C245.808608,23.0940155 246.799975,23.1394245 247.798434,23.0810415 C248.796859,23.0226585 249.788455,22.8539964 250.767602,22.61268 C251.977731,22.3175215 253.187859,21.9318692 254.376291,21.4790766 C255.564723,21.0259595 256.736654,20.4995394 257.908847,19.9371164 C259.51794,19.1654876 261.064036,18.3455307 262.568176,17.5492513 C264.249841,16.6628026 265.893374,15.8207898 267.547266,15.2064708 C268.41218,14.8853642 269.286243,14.6265329 270.150994,14.4507352 C271.01568,14.2755861 271.868929,14.1815246 272.709043,14.1944986 C273.62908,14.1944986 274.524578,14.3501866 275.358484,14.602531 C276.192357,14.855524 276.968361,15.2249588 277.627226,15.7059699 C278.370261,16.2473101 278.975962,16.9320131 279.408746,17.6705582 C279.841465,18.4094276 280.095711,19.2063557 280.154821,19.9831741 C280.205467,20.6403073 280.135215,21.2679247 279.911063,21.8121841 C279.788531,22.1073426 279.6196,22.3953655 279.423842,22.6282488 C279.227791,22.8617809 279.001122,23.0473091 278.753869,23.1874283 C278.477436,23.3463598 278.16957,23.4436649 277.870722,23.4760999 C277.57207,23.5085349 277.276718,23.4760999 277.018028,23.3852818 C276.724277,23.2847333 276.477056,23.1095843 276.287148,22.9016759 C276.075739,22.6713874 275.928112,22.3892028 275.87606,22.1157757 C275.822799,21.8433217 275.859722,21.5815712 275.936836,21.3447956 C276.013623,21.1080201 276.129293,20.9104909 276.271823,20.7554516 C276.436833,20.5738155 276.628277,20.4440755 276.804756,20.3623393 C276.981203,20.2812518 277.158597,20.2358428 277.29201,20.2098948 C277.425325,20.1774598 277.524985,20.1709728 277.596543,20.1644858 C277.668102,20.1644858 277.701758,20.1644858 277.703065,20.1320508 C277.705483,20.1320508 277.668756,20.0931288 277.596543,20.0704243 C277.524331,20.0379893 277.426305,20.0379893 277.276653,20.0379893 C277.127327,20.0363675 276.926929,20.0379893 276.713266,20.1125898 C276.499569,20.1807033 276.26764,20.3039563 276.043292,20.5053777 C275.851161,20.6772832 275.675695,20.8991387 275.556071,21.1855398 C275.43648,21.4709678 275.37505,21.8170493 275.419162,22.1832405 C275.464254,22.5458639 275.612599,22.9185421 275.875962,23.2412704 C276.112204,23.529942 276.436833,23.7839081 276.819983,23.9363526 C277.160917,24.0693361 277.52652,24.1244756 277.916304,24.1017711 C278.306087,24.0693361 278.717795,23.9785181 279.088757,23.7839081 C279.414857,23.6120025 279.712365,23.3713348 279.971872,23.0888259 C280.231313,22.8066413 280.449094,22.4725608 280.611392,22.1063696 C280.90645,21.4408033 281.034537,20.6811754 280.992059,19.9147362 C280.941086,19.0068804 280.671841,18.0857263 280.200272,17.2242525 C279.728572,16.3627788 279.052292,15.5622828 278.20561,14.9268811 C277.461039,14.3686746 276.605339,13.9295371 275.678015,13.6269185 C274.750691,13.3252729 273.741058,13.1523943 272.724041,13.1283924 C271.798742,13.0959574 270.871778,13.1932624 269.937592,13.3684115 C269.003406,13.546804 268.064058,13.8212041 267.151143,14.1542792 C265.409323,14.7880592 263.725828,15.6417486 262.035014,16.5275486 C260.523423,17.3157192 258.985921,18.125297 257.40617,18.8852491 C256.255315,19.4389147 255.098611,19.9539826 253.949716,20.3967204 C252.800821,20.8397826 251.648887,21.2147313 250.493293,21.5001593 C249.559794,21.7272044 248.634103,21.9017047 247.722071,21.9685208 C246.810039,22.0366343 245.917809,22.0009558 245.072663,21.8031023 C244.183144,21.6117357 243.353062,21.2796013 242.651655,20.7904814 C241.920643,20.2806031 241.32066,19.6062793 240.961494,18.8557333 C240.750738,18.4165633 240.618501,17.9498236 240.5656,17.4801647 C240.512666,17.0108302 240.530311,16.5424687 240.641734,16.1049205 C240.760018,15.6359103 240.985771,15.1970646 241.266027,14.8201699 C241.546381,14.4432751 241.884341,14.1344939 242.270988,13.9133196 C242.69276,13.670057 243.172466,13.5260456 243.641356,13.4900427 C244.110246,13.4543642 244.57528,13.5224777 244.981303,13.6878963 C245.429411,13.8662888 245.819358,14.1445487 246.108077,14.4890085 C246.420126,14.8603893 246.624803,15.3037758 246.701884,15.7432701 C246.765274,16.1058935 246.745016,16.4759769 246.656139,16.8013 C246.55942,17.1567877 246.369577,17.467515 246.138465,17.7081828 C245.880003,17.9773933 245.560211,18.1551372 245.240091,18.2371977 C245.053188,18.2858502 244.870534,18.3085547 244.691931,18.2988242 C244.513197,18.2988242 244.341129,18.2501717 244.189451,18.1917887 C243.995359,18.1204317 243.826428,18.0231267 243.68697,17.9063607 C243.547447,17.7895947 243.436351,17.6566111 243.351983,17.5284929 C243.252977,17.3760483 243.197756,17.2236038 243.153971,17.0902959 C243.110187,16.9573124 243.077184,16.8405464 243.062481,16.7425927 C243.046143,16.6452877 243.039608,16.5674436 243.033073,16.5155476 C243.026538,16.4636516 243.030132,16.4409471 243.016735,16.4409471 L243.000398,16.4409471 C242.987328,16.4393254 242.97099,16.4733821 242.954652,16.5155476 C242.938315,16.5674436 242.935047,16.6388007 242.925245,16.7425927 C242.915442,16.8463847 242.915442,16.9793682 242.941582,17.1357049 C242.967722,17.291393 243.014775,17.4746507 243.108879,17.6643955 C243.189587,17.8265706 243.290554,17.991016 243.443866,18.1483258 C243.597113,18.3040138 243.802477,18.4597019 244.037707,18.5712783 C244.221668,18.6556093 244.423863,18.7075053 244.646774,18.7366968 C244.869619,18.7691318 245.103672,18.7691318 245.347201,18.7366968 C245.762765,18.6556093 246.183164,18.4480253 246.534881,18.1171882 C246.84791,17.8220297 247.105881,17.4337826 247.250502,16.9835848 C247.382183,16.5723089 247.434464,16.1295711 247.372381,15.6686696 C247.297554,15.1091658 247.067847,14.5392827 246.68718,14.0514602 C246.334778,13.6003218 245.852491,13.2244 245.286359,12.9782183 C244.76692,12.7544168 244.189647,12.6496517 243.596198,12.6765728 L243.595774,12.6658692 L243.595774,12.6658692 Z M140.283741,25.7851479 C139.253784,25.7851479 138.222194,26.1691784 137.436354,26.9492403 C135.864706,28.509364 135.864706,31.0418893 137.436354,32.6020131 C139.008034,34.1621368 141.559417,34.1621368 143.131097,32.6020131 C144.702744,31.0418893 144.702744,28.509364 143.131097,26.9492403 C142.345257,26.1691784 141.313699,25.7851479 140.283741,25.7851479 L140.283741,25.7851479 L140.283741,25.7851479 Z M136.005079,35.9726589 C135.257011,36.0699639 133.755812,37.0868013 132.25935,38.5723246 C130.417511,40.4003615 129.289691,42.2446159 129.731722,42.6834616 C130.173786,43.1223072 132.016311,41.9874063 133.858118,40.1593694 C135.699957,38.3310081 136.843003,36.5019982 136.400972,36.0631525 C136.317977,35.982065 136.1778,35.94963 136.005079,35.9723345 L136.005079,35.9726589 L136.005079,35.9726589 Z M143.89243,35.9726589 C143.795712,35.9726589 143.719252,36.0083374 143.66403,36.0634769 C143.221967,36.5023225 144.365013,38.3313325 146.206852,40.1596938 C148.048659,41.9877307 149.891217,43.1226315 150.333248,42.6837859 C150.775279,42.2449403 149.64746,40.4006858 147.805653,38.5726489 C146.194043,36.9729544 144.56809,35.9194655 143.89243,35.9729832 L143.89243,35.9726589 L143.89243,35.9726589 Z M140.009661,36.6979056 C139.098021,36.6979056 138.349954,39.7591214 138.349954,43.5296908 C138.349954,47.3002603 139.098021,50.346556 140.009661,50.346556 C140.921269,50.346556 141.654109,47.3002603 141.654109,43.5296908 C141.654109,39.7591214 140.921269,36.6979056 140.009661,36.6979056 L140.009661,36.6979056 L140.009661,36.6979056 Z" id="shape-decor"></path>
    </g>
</svg>