<?xml version="1.0" encoding="UTF-8" standalone="no"?>
<svg width="398px" height="400px" viewBox="0 0 398 400" version="1.1" xmlns="http://www.w3.org/2000/svg" xmlns:xlink="http://www.w3.org/1999/xlink">
    <g stroke="none" stroke-width="1" fill="#000000" fill-rule="evenodd">
        <path d="M113.320262,156.612026 C116.537318,141.318275 98.11136,129.976621 86.486989,124.695901 C69.005208,116.757881 53.8245319,121.377078 48.7925897,141.097781 C47.0342353,148.006809 42.0249196,176.157448 29.1340352,165.918323 C25.5607832,163.085729 24.2151627,158.398664 30.1291161,155.97317 C17.8602323,155.809208 22.36068,171.866239 31.9722799,169.25979 C30.6888481,170.373603 30.4344255,171.741844 29.3997654,172.968733 C33.4988267,173.681119 47.8766558,173.53412 45.049713,165.912689 C46.5592957,169.977828 43.0312795,172.335476 39.8707613,174.257815 C46.0278583,174.806242 51.1672193,169.989141 52.6541698,163.668093 C54.1863675,157.1548 50.0590402,152.53562 50.5565835,145.926221 C51.6195096,131.898926 59.9872684,123.740411 73.9466841,125.713603 C71.8321336,128.201308 59.9193888,134.838944 56.8719518,129.891817 C62.8254673,139.559966 73.5339217,139.848283 83.2472666,139.678698 C91.7394083,139.526044 116.695595,140.549396 113.320245,156.612072 L113.320262,156.612026 Z M302.855019,302.533037 C316.362133,306.547289 323.299445,304.709782 329.744859,302.419959 C318.20528,289.704373 302.572302,287.171461 288.635513,288.664068 L288.595936,289.302958 L302.855038,302.533012 L302.855019,302.533037 Z M302.018244,303.358505 C307.34985,316.40766 306.202115,323.49193 304.562487,330.129612 C290.772655,319.901743 286.70754,304.591078 286.820615,290.580753 L287.453849,290.47333 L302.018238,303.3585 L302.018244,303.358505 Z M92.6950013,306.813025 C79.1878873,310.827277 72.2505756,308.98977 65.7995053,306.699947 C77.3447407,293.984361 92.9776613,291.451449 106.914508,292.949712 L106.948431,293.582946 L92.6949848,306.813 L92.6950013,306.813025 Z M93.5317767,307.638493 C88.2001703,320.687648 89.3479059,327.771918 90.9875338,334.4096 C104.777365,324.18173 108.842481,308.871066 108.729405,294.860741 L108.096172,294.758971 L93.5317824,307.638485 L93.5317767,307.638493 Z M302.855019,97.4387584 C316.362133,93.4188498 323.299445,95.2620135 329.744859,97.5461817 C318.20528,110.261768 302.572302,112.79468 288.635513,111.302073 L288.595936,110.663183 L302.855038,97.4387858 L302.855019,97.4387584 Z M302.018244,96.6076397 C307.34985,83.5641406 306.202115,76.4798137 304.562487,69.8365323 C290.772655,80.0700585 286.70754,95.3750661 286.820615,109.391048 L287.453849,109.492818 L302.018238,96.6076471 L302.018244,96.6076397 Z M92.6950013,93.1587763 C79.1878873,89.1388677 72.2505756,90.9820315 65.7995053,93.2661997 C77.3447407,105.981786 92.9776613,108.514698 106.914508,107.022091 L106.948431,106.383201 L92.6949848,93.1588037 L92.6950013,93.1587763 Z M93.5317767,92.3276576 C88.2001703,79.2841585 89.3479059,72.1942321 90.9875338,65.5565503 C104.777365,75.7844198 108.842481,91.095084 108.729405,105.111066 L108.096172,105.212836 L93.5317824,92.3276651 L93.5317767,92.3276576 Z M179.301117,356.261932 C181.49482,354.356574 182.981787,355.52693 181.387395,358.336903 C179.793003,361.112959 183.524561,365.234618 187.810183,365.409917 C191.864014,365.590841 195.10369,361.972361 195.408977,358.455635 C195.697324,354.729728 193.164387,349.991777 187.312628,349.754312 C181.449561,349.522503 174.614012,352.988327 173.82814,362.204151 C173.059216,371.419941 181.754848,378.165042 190.998978,378.543865 C209.475869,379.295831 216.938961,360.44014 216.441406,347.639762 C215.757286,328.891525 208.243295,318.884149 193.452755,311.686747 C190.772816,311.341861 183.598051,305.699292 178.616962,305.710605 C181.596554,307.819499 191.513446,313.117188 201.458598,321.224851 C211.38678,329.564321 212.246188,343.727261 211.460317,353.157946 C210.634849,362.826095 201.656523,375.445518 190.846306,375.00453 C175.513016,374.388254 176.598517,358.789205 179.301071,356.261949 L179.301117,356.261932 Z M272.963453,158.218235 C269.746397,142.924483 288.172355,131.582829 299.791069,126.30211 C317.278507,118.364089 332.459183,122.988937 337.485469,142.703989 C339.24948,149.618674 344.258795,177.763657 357.149623,167.530187 C360.722875,164.691943 362.068495,160.004872 356.154542,157.579378 C368.423425,157.415416 363.922978,173.472447 354.311378,170.871655 C355.59481,171.979817 355.843576,173.342402 356.883892,174.574947 C352.77918,175.287333 338.407002,175.140334 341.228288,167.524559 C339.718705,171.584042 343.252378,173.94169 346.40724,175.864029 C340.255799,176.412455 335.116438,171.595355 333.629488,165.274307 C332.09729,158.761014 336.224618,154.141834 335.721423,147.532435 C334.658497,133.50514 326.290739,125.352282 312.336979,127.319817 C314.45153,129.813179 326.364275,136.445158 329.411712,131.498031 C323.458196,141.16618 312.749742,141.460154 303.036397,141.284912 C294.544255,141.137911 269.582412,142.15561 272.963419,158.218286 L272.963453,158.218235 Z M199.887244,184.814044 C207.864861,184.814044 214.338558,191.282084 214.338558,199.259701 C214.338558,207.242975 207.864861,213.711015 199.887244,213.711015 C191.909627,213.711015 185.441587,207.242975 185.441587,199.259701 C185.441587,191.282084 191.909627,184.814044 199.887244,184.814044 L199.887244,184.814044 Z M339.758519,310.850006 C348.069706,304.127532 351.852162,294.906085 363.968431,292.949806 C374.756021,291.197103 384.921725,296.455207 396.76659,293.277731 C383.655268,295.872861 385.809358,308.791977 378.346266,317.05791 C369.571464,326.771255 356.024753,323.000113 344.914907,317.855107 C357.144252,321.145664 369.571464,313.914356 376.231715,303.692166 C364.9296,312.783625 349.946849,315.870601 336.711139,311.703723 L339.758576,310.84999 L339.758519,310.850006 Z M314.033374,322.807947 C313.660218,316.441669 318.522554,310.974395 324.900099,310.612542 C331.255064,310.239386 336.722338,315.107373 337.089848,321.462355 C337.451696,327.839946 332.595016,333.301564 326.223122,333.669073 C319.8625,334.042229 314.400883,329.179893 314.033374,322.808004 L314.033374,322.807947 Z M317.323931,338.113012 C308.837446,344.603678 298.977086,346.124568 294.216548,357.432283 C289.998754,367.50748 292.706965,378.62864 286.838248,389.393661 C292.441241,377.260422 304.500984,382.394183 314.276494,377.096494 C325.782133,370.831978 325.312862,356.776457 322.921251,344.773263 C323.243521,357.432283 313.292698,367.812824 301.787059,371.89491 C313.281385,363.040915 319.800335,349.188918 318.867391,335.353891 L317.32388,338.112983 L317.323931,338.113012 Z M338.571198,340.448062 C345.101404,348.917577 354.232459,352.926184 355.900308,365.076336 C357.398583,375.897866 351.897363,385.939123 354.797802,397.863181 C352.524946,384.68398 339.543647,386.544097 331.452955,378.883137 C321.954447,369.876528 326.053503,356.420266 331.452955,345.434808 C327.868395,357.579361 334.811358,370.181814 344.863963,377.085186 C336.060878,365.568234 333.324384,350.511946 337.790949,337.372342 L338.571187,340.448051 L338.571198,340.448062 Z M343.405262,326.827873 C354.108059,327.121874 362.97331,322.559198 373.455613,328.942423 C382.790136,334.624569 387.104086,345.219914 398.179993,350.494977 C386.521682,343.959114 379.759668,355.182042 368.728958,356.629447 C355.747682,358.297341 347.888796,346.633385 342.783318,335.506569 C349.935467,345.943619 364.087151,348.521785 375.796315,345.084212 C361.294148,344.654517 347.905766,337.264923 340.533066,325.499193 L343.405233,326.827855 L343.405262,326.827873 Z M58.4214737,312.987189 C50.1046303,306.264715 46.327831,297.043268 34.2115619,295.086989 C23.4296285,293.334285 13.2582681,298.598046 1.40774622,295.414914 C14.5247243,298.015694 12.3706346,310.929159 19.8337271,319.20075 C28.6085288,328.908438 42.1552392,325.137295 53.259429,319.997946 C41.0357411,323.288504 28.6085288,316.051539 21.9482775,305.835006 C33.2447356,314.920808 48.2331434,318.007784 61.4688536,313.846563 L58.4214165,312.987172 L58.4214737,312.987189 Z M84.146619,324.94513 C84.5197748,318.584508 79.6574389,313.117234 73.2798934,312.755381 C66.9249286,312.382226 61.4576546,317.244561 61.0901452,323.605194 C60.728297,329.982785 65.5849763,335.438746 71.9568709,335.806256 C78.3174922,336.185065 83.7791096,331.322732 84.146619,324.945187 L84.146619,324.94513 Z M80.8560613,340.250194 C89.3425463,346.746518 99.1972498,348.267408 103.963445,359.569465 C108.181238,369.65032 105.473027,380.771479 111.341745,391.5365 C105.738752,379.397604 93.679009,384.537022 83.9034983,379.233676 C72.3978593,372.974817 72.8671309,358.913639 75.2587419,346.916102 C74.9364712,359.569465 84.8872945,369.955663 96.3929335,374.032092 C84.8929511,365.178098 78.379658,351.331758 79.3126017,337.49673 L80.8561127,340.250166 L80.8560613,340.250194 Z M59.6087942,342.590901 C53.0785883,351.05476 43.9475333,355.063367 42.279685,367.213518 C40.7814099,378.035048 46.2769728,388.076306 43.3821904,400.000364 C45.6550465,386.82682 58.6363456,388.68128 66.7270381,381.025976 C76.2255454,372.019367 72.1264897,358.563105 66.7270381,347.577648 C70.3115977,359.7222 63.368635,372.324653 53.3103729,379.228025 C62.124771,367.711073 64.8556083,352.649129 60.3890432,339.515181 L59.6088057,342.59089 L59.6087942,342.590901 Z M54.7747311,328.965055 C44.0719334,329.264711 35.2066828,324.702032 24.7243793,331.085257 C15.389857,336.767403 11.0759067,347.357091 0,352.63781 C11.6583108,346.096291 18.4203242,357.319219 29.451035,358.766624 C42.4323111,360.440169 50.2911962,348.770562 55.3966746,337.649402 C48.2445252,348.080796 34.0928413,350.658962 22.3780213,347.221389 C36.8858443,346.791694 50.2742263,339.407757 57.646927,327.63637 L54.7747597,328.965032 L54.7747311,328.965055 Z M339.758519,89.1560147 C348.069706,95.8784889 351.852162,105.099936 363.968431,107.056215 C374.756021,108.808918 384.921725,103.545157 396.76659,106.72829 C383.655268,104.127509 385.809358,91.2083875 378.346266,82.9424537 C369.571464,73.2347655 356.024753,77.0059081 344.920564,82.1452577 C357.144252,78.8546999 369.571464,86.0916644 376.231715,96.3081978 C364.9296,87.2167392 349.946849,84.1354195 336.711139,88.2966409 L339.758576,89.1560313 L339.758519,89.1560147 Z M314.033374,77.1924174 C313.660218,83.5586954 318.522554,89.0259694 324.900099,89.3878222 C331.255064,89.760978 336.722338,84.8986421 337.089848,78.5380093 C337.451696,72.1604181 332.595016,66.6988006 326.223122,66.3369478 C319.8625,65.9581383 314.400883,70.8204714 314.033374,77.1924174 L314.033374,77.1924174 Z M317.323931,61.8930093 C308.837446,55.396686 298.982743,53.8757958 294.216548,42.5737383 C289.998754,32.492884 292.706965,21.3773809 286.838248,10.6067036 C292.441241,22.7455993 304.500984,17.6061811 314.276494,22.9038706 C325.782133,29.1683864 325.312862,43.2295643 322.915594,55.2271014 C323.243519,42.5737383 313.292698,32.1875403 301.787059,28.1111112 C313.281385,36.9651057 319.800335,50.811446 318.867391,64.6464731 L317.32388,61.8930378 L317.323931,61.8930093 Z M338.571198,59.5523022 C345.101404,51.0884437 354.226803,47.0798369 355.900308,34.9296851 C357.398583,24.1081553 351.897363,14.0668974 354.797802,2.14283934 C352.524946,15.3163837 339.543647,13.4619239 331.452955,21.1172274 C321.954447,30.1238366 326.053503,43.5800982 331.452955,54.5655559 C327.868395,42.4210036 334.811358,29.8185501 344.86962,22.9151781 C336.055222,34.4321304 333.324384,49.4940744 337.790949,62.6280224 L338.571187,59.5523137 L338.571198,59.5523022 Z M343.405262,73.1781483 C354.108059,72.8784927 362.97331,77.4411719 373.455613,71.0579469 C382.790136,65.375801 387.104086,54.786113 398.179993,49.5053934 C386.521682,56.0469126 379.759668,44.8183284 368.728958,43.3765795 C355.747682,41.7030346 347.888796,53.3669849 342.783318,64.4938012 C349.935467,54.0624074 364.087151,51.4785853 375.796315,54.9161583 C361.294148,55.3458529 347.905766,62.7354469 340.533066,74.5068332 L343.405233,73.1781712 L343.405262,73.1781483 Z M58.4214737,87.0131754 C50.1046303,93.7356495 46.327831,102.957096 34.2115619,104.913375 C23.4239719,106.666079 13.2582681,101.407974 1.40774622,104.58545 C14.5247243,101.98467 12.3706346,89.0712047 19.8337271,80.805271 C28.6085288,71.0919261 42.1552392,74.8630688 53.259429,80.008075 C41.0357411,76.7175172 28.6085288,83.948825 21.9482775,94.1710151 C33.2447356,85.0795564 48.2331434,81.9925801 61.4688536,86.1538016 L58.4214165,87.013192 L58.4214737,87.0131754 Z M84.146619,75.0552347 C84.5197748,81.4215127 79.6574389,86.8887867 73.2798934,87.2506395 C66.9249286,87.6237953 61.4576546,82.7558084 61.0901452,76.4008266 C60.728297,70.0232353 65.5849763,64.5616179 71.9568709,64.1941085 C78.3174922,63.8209527 83.7791096,68.6832887 84.146619,75.0551776 L84.146619,75.0552347 Z M80.8560613,59.7501699 C89.3425463,53.2595033 99.1972498,51.7386131 103.963445,40.4308989 C108.181238,30.3557012 105.473027,19.2345416 111.341745,8.46952091 C105.738752,20.6027599 93.679009,15.4689984 83.9034983,20.7666879 C72.3978593,27.0312037 72.8671309,41.086725 75.2587419,53.0899187 C74.9364712,40.4308989 84.8872945,30.0503576 96.3929335,25.9682718 C84.8929511,34.8222663 78.379658,48.6742633 79.3126017,62.5092904 L80.8561127,59.7501985 L80.8560613,59.7501699 Z M59.6087942,57.4151195 C53.0785883,48.9512609 43.9475333,44.9369976 42.279685,32.7868458 C40.7814099,21.965316 46.2769728,11.9240581 43.3821904,3.55271368e-15 C45.6550465,13.179201 58.6363456,11.3190845 66.7270381,18.9800447 C76.2255454,27.9866539 72.1264897,41.4429154 66.7270381,52.4283732 C70.3115977,40.2838209 63.368635,27.6813674 53.3103729,20.7779954 C62.1191144,32.289291 64.8556083,47.3512351 60.3890432,60.4851831 L59.6088057,57.4151309 L59.6087942,57.4151195 Z M54.7747311,71.035309 C44.0719334,70.7413072 35.2066828,75.3039835 24.7243793,68.9207585 C15.389857,63.2386126 11.0759067,52.6432679 4.97379915e-14,47.368205 C11.6583108,53.9040675 18.4203242,42.6811399 29.451035,41.2337345 C42.4323111,39.5658405 50.2911962,51.2297965 55.3966746,62.3566128 C48.2445252,51.9195623 34.0928413,49.3413969 22.3780213,52.7789699 C36.8858443,53.2086645 50.2742263,60.5982585 57.646927,72.3639881 L54.7747597,71.0353261 L54.7747311,71.035309 Z M225.035813,206.993797 C248.595498,216.260497 263.725265,234.432044 292.520531,230.19163 C318.143914,226.454415 337.378393,207.316054 366.416665,206.08348 C334.941529,209.543651 330.582382,178.809161 307.813997,165.437749 C281.076829,149.753919 253.135371,167.936762 231.701492,187.465231 C256.974336,171.323442 290.236167,178.809161 312.563279,197.150293 C280.551048,184.660858 244.46776,188.403774 217.533067,207.22549 L225.035756,206.993681 L225.035813,206.993797 Z M186.589482,63.8656755 C186.374635,47.4185432 191.932396,36.2069346 208.3795,27.1663857 C219.596765,20.975406 239.792413,19.1717987 247.419491,36.0147236 C251.235858,44.4389857 249.115657,55.237889 240.538746,58.6980885 C231.950498,62.1356443 225.782145,57.5842756 223.362251,52.2413616 C220.942391,46.9041043 224.029407,42.5167035 227.495235,41.0975754 C230.768829,39.7915285 235.461539,41.0636522 237.123788,44.7612878 C238.89345,48.6737719 236.886325,53.8527465 233.686232,53.6774481 C230.457868,53.5191397 230.084714,55.3736138 232.770304,56.4761192 C236.241782,57.7538944 250.664847,51.715558 244.326852,37.7391952 C239.865944,27.8788351 224.555222,25.5324772 215.548613,29.1396347 C206.768155,32.6789585 194.504871,39.8084927 191.514,52.4223166 C188.737944,64.951291 188.460906,76.1912399 187.918133,79.7983975 C185.673543,75.3601041 187.488438,66.4156721 186.589471,63.8657898 L186.589482,63.8656755 Z M307.079092,264.176595 C306.864245,247.729463 312.427657,236.517854 328.86911,227.482962 C340.086375,221.286326 360.282023,219.482718 367.909101,236.325643 C371.731119,244.755562 369.610917,255.554465 361.028355,259.009008 C352.445765,262.446564 346.271755,257.900846 343.851861,252.552281 C341.432001,247.220675 344.524674,242.827623 347.984845,241.414152 C351.258439,240.102454 355.956805,241.374574 357.613398,245.077864 C359.383059,248.979041 357.375935,254.163666 354.181493,253.988368 C350.947478,253.830059 350.574318,255.684533 353.265564,256.79269 C356.737043,258.064814 371.154451,252.026472 364.816456,238.050109 C360.355548,228.195406 345.044827,225.843391 336.038217,229.450549 C327.263416,232.989872 314.994475,240.125063 312.009261,252.738887 C309.233205,265.267862 308.956167,276.502154 308.407743,280.114968 C306.163152,275.671024 307.983702,266.726586 307.079081,264.176704 L307.079092,264.176595 Z M92.6334584,254.921209 C89.6255949,269.016326 82.7109325,277.519724 66.9026564,282.071139 C56.1150664,285.192077 38.50324,282.828755 35.246622,266.958342 C33.6126507,259.009008 37.5081705,250.188953 45.5196874,248.894214 C53.5142744,247.616439 57.9073033,252.699274 58.9476658,257.736895 C59.982326,262.768843 56.4938833,265.923693 53.259869,266.466501 C50.2067753,266.952735 46.4469459,264.951262 45.7345536,261.474127 C44.9769368,257.787799 47.6907928,253.745287 50.4046544,254.514188 C53.1185161,255.277462 53.8139443,253.762223 51.7220089,252.29787 C49.0024963,250.533859 35.5123407,252.902832 38.2205515,266.082045 C40.1259095,275.365714 52.7623142,280.341147 61.1470371,278.995498 C69.3451485,277.666836 81.2126402,273.940935 86.1993866,263.747 C90.999527,253.57004 93.4137588,244.020623 94.5727962,241.024096 C95.6470299,245.270155 92.3508212,252.563674 92.6335155,254.921346 L92.6334584,254.921209 Z M217.001573,216.768851 C237.479938,231.638527 260.932205,234.69162 272.873175,261.21395 C283.451584,284.835858 277.678972,311.335562 292.209416,336.506529 C278.227374,308.073173 249.969316,320.935774 226.488538,308.94955 C198.835454,294.80358 199.163367,261.434387 204.127429,232.882185 C204.070891,262.89294 228.280775,286.876701 255.769931,295.889024 C228.037654,275.59727 211.771477,243.143994 213.190605,210.317381 L217.001315,216.768451 L217.001573,216.768851 Z M191.598684,225.351441 C187.250851,250.279402 194.832698,272.674393 176.265393,295.074813 C159.716498,314.976431 133.386379,321.455784 117.17134,345.56959 C136.547178,320.500328 112.557777,300.796521 112.98747,274.432633 C113.530242,243.375916 143.637138,228.975455 171.454151,220.873449 C144.485175,234.03568 133.601423,266.324971 137.615686,294.972993 C143.614455,261.145842 165.602397,232.254699 195.703544,219.081041 L191.598832,225.351213 L191.598684,225.351441 Z M169.277171,214.98787 C144.535822,220.296861 126.618652,235.726269 98.8864324,226.906214 C74.2411888,219.019046 58.3594336,197.03676 29.9372765,191.043705 C60.4342734,199.620639 69.7179431,169.982993 94.3177052,160.501456 C123.299469,149.374639 147.939056,171.882706 165.884337,194.645206 C143.568482,174.562633 109.549119,176.575422 84.4911705,191.032381 C118.120454,183.925485 153.13464,193.474856 176.626789,216.452183 L169.276771,214.98783 L169.277171,214.98787 Z M195.731679,174.969739 C192.599433,149.804314 201.295093,127.839056 183.830247,104.590428 C168.310345,83.8520287 142.313853,76.1401017 127.319731,51.1782583 C145.440426,77.1748076 120.489838,95.6855807 119.641744,122.083236 C118.652314,153.089101 147.990308,168.936917 175.411585,178.412797 C149.132376,163.944514 139.814766,131.123785 145.225531,102.729968 C149.584672,136.851093 170.096925,166.777285 199.514078,181.426238 L195.731633,174.969511 L195.731679,174.969739 Z M223.961511,183.812421 C241.188858,165.182915 263.595162,157.680226 270.108455,129.354289 C275.931926,104.070132 265.11043,79.255304 274.461939,51.692783 C266.269485,82.2971987 236.026865,75.2016157 215.327891,91.5356725 C190.999247,110.787121 197.789543,143.421295 208.220994,170.509059 C202.329644,141.074994 221.411508,112.817165 246.605159,98.6367408 C223.328134,123.960437 213.716551,158.878689 221.468018,190.874064 L223.961379,183.812363 L223.961511,183.812421 Z" id="shape-flowers"></path>
    </g>
</svg>